HIERARCHY
ROOT Hips
{
	OFFSET 0.00000 0.00000 0.00000
	CHANNELS 6 Xposition Yposition Zposition Zrotation Yrotation Xrotation 
	JOINT LHipJoint
	{
		OFFSET 0 0 0
		CHANNELS 3 Zrotation Yrotation Xrotation
		JOINT LeftHip
		{
			OFFSET 1.34019 -1.87553 0.90315
			CHANNELS 3 Zrotation Yrotation Xrotation
			JOINT LeftKnee
			{
				OFFSET 2.55316 -7.01474 0.00000
				CHANNELS 3 Zrotation Yrotation Xrotation
				JOINT LeftAnkle
				{
					OFFSET 2.64657 -7.27139 0.00000
					CHANNELS 3 Zrotation Yrotation Xrotation
					JOINT LeftToe
					{
						OFFSET 0.24207 -0.66507 2.14489
						CHANNELS 3 Zrotation Yrotation Xrotation
						End Site
						{
							OFFSET 0.00000 -0.00000 1.12451
						}
					}
				}
			}
		}
	}
	JOINT RHipJoint
	{
		OFFSET 0 0 0
		CHANNELS 3 Zrotation Yrotation Xrotation
		JOINT RightHip
		{
			OFFSET -1.28320 -1.87553 0.90315
			CHANNELS 3 Zrotation Yrotation Xrotation
			JOINT RightKnee
			{
				OFFSET -2.60484 -7.15674 0.00000
				CHANNELS 3 Zrotation Yrotation Xrotation
				JOINT RightAnkle
				{
					OFFSET -2.60296 -7.15159 0.00000
					CHANNELS 3 Zrotation Yrotation Xrotation
					JOINT RightToe
					{
						OFFSET -0.31082 -0.85398 2.28998
						CHANNELS 3 Zrotation Yrotation Xrotation
						End Site
						{
							OFFSET -0.00000 -0.00000 1.21611
						}
					}
				}
			}
		}
	}
	JOINT lowerback
	{
		OFFSET 0 0 0
		CHANNELS 3 Zrotation Yrotation Xrotation
		JOINT Chest
		{
			OFFSET -0.00160 2.05581 -0.15156
			CHANNELS 3 Zrotation Yrotation Xrotation
			JOINT Chest2
			{
				OFFSET 0.04594 2.06326 -0.01617
				CHANNELS 3 Zrotation Yrotation Xrotation
				JOINT lowerneck
				{
					OFFSET 0 0 0
					CHANNELS 3 Zrotation Yrotation Xrotation
					JOINT Neck
					{
						OFFSET 0.03753 1.73883 0.26751
						CHANNELS 3 Zrotation Yrotation Xrotation
						JOINT Head
						{
							OFFSET -0.09795 1.76129 -0.31794
							CHANNELS 3 Zrotation Yrotation Xrotation
							End Site
							{
								OFFSET -0.03611 1.79987 -0.13846
							}
						}
					}
				}
				JOINT LeftCollar
				{
					OFFSET 0 0 0
					CHANNELS 3 Zrotation Yrotation Xrotation
					JOINT LeftShoulder
					{
						OFFSET 3.30667 1.29205 -0.22445
CHANNELS 3 Zrotation Xrotation Yrotation
						JOINT LeftElbow
						{
OFFSET 0 -4.927850 -0.000000
CHANNELS 3 Zrotation Xrotation Yrotation
							JOINT LeftWrist
							{
OFFSET 0 -3.440520 0.000000
CHANNELS 3 Zrotation Xrotation Yrotation
								JOINT lhand
								{
									OFFSET 0 0 0
CHANNELS 3 Zrotation Xrotation Yrotation
									JOINT LFingers
									{
OFFSET 0 -0.654330 0.000000
CHANNELS 3 Zrotation Xrotation Yrotation
										End Site
										{
OFFSET 0 -0.527530 0.000000
										}
									}
								}
								JOINT LThumb
								{
OFFSET 0 0.000000 0.000000
CHANNELS 3 Zrotation Xrotation Yrotation
									End Site
									{
OFFSET 0 -0.535590 0.535590
									}
								}
							}
						}
					}
				}
				JOINT RightCollar
				{
					OFFSET 0 0 0
					CHANNELS 3 Zrotation Yrotation Xrotation
					JOINT RightShoulder
					{
						OFFSET -3.20032 1.49783 -0.27688
CHANNELS 3 Zrotation Xrotation Yrotation
						JOINT RightElbow
						{
OFFSET 0 -5.091810 -0.000000
CHANNELS 3 Zrotation Xrotation Yrotation
							JOINT RightWrist
							{
OFFSET 0 -3.498650 -0.000000
CHANNELS 3 Zrotation Xrotation Yrotation
								JOINT rhand
								{
									OFFSET 0 0 0
CHANNELS 3 Zrotation Xrotation Yrotation
									JOINT RFingers
									{
OFFSET 0 -0.666410 0.000000
CHANNELS 3 Zrotation Xrotation Yrotation
										End Site
										{
OFFSET 0 -0.537280 0.000000
										}
									}
								}
								JOINT RThumb
								{
OFFSET 0 0.000000 0.000000
CHANNELS 3 Zrotation Xrotation Yrotation
									End Site
									{
OFFSET 0 -0.545480 0.545480
									}
								}
							}
						}
					}
				}
			}
		}
	}
}
MOTION
Frames: 8
Frame Time: 0.008333333333333333
-0.002000 17.869800 -29.140500 -1.134500 36.961000 0.752400 0.000000 0.000000 0.000000 -13.016300 -14.238700 -9.762400 2.133200 9.138200 26.228700 0.308700 -7.995300 -10.616100 0.268700 -3.334800 -9.212200 0.000000 0.000000 0.000000 20.564900 -14.299000 -5.992900 -1.988700 -8.842600 25.304100 2.291900 -32.797800 -34.958100 -0.039500 -1.283100 3.528200 2.920700 7.059000 3.001300 2.812200 9.555500 0.468600 0.897200 4.772200 -1.191200 20.500800 18.599700 3.720400 -23.771400 29.140500 9.168000 -7.581200 14.418500 8.935200 -0.000000 0.000000 0.000000 2.274200 -5.983300 -5.710300 10.650500 -17.750600 1.667800 22.332200 -8.097200 8.511800 0.000000 0.000000 0.000000 -7.125000 0.000000 0.000000 -3.279900 20.795900 -1.904800 -0.000000 0.000000 0.000000 -18.088200 11.580000 5.605100 -27.685500 -38.825100 -9.925900 -16.337700 -13.701400 1.266300 0.000000 0.000000 0.000000 7.125000 0.000000 -0.000000 8.156400 31.236800 2.769000
-0.002548 17.868722 -29.124896 -0.939883 37.229743 0.914496 0.000000 0.000000 0.000000 -13.185492 -14.565510 -9.697295 2.137969 9.147723 26.258492 0.311269 -7.901148 -10.623558 0.273234 -3.362366 -9.289331 0.000000 0.000000 0.000000 20.438341 -14.504055 -6.129015 -2.010478 -8.887783 25.444942 2.306240 -32.833465 -34.946325 -0.036473 -1.232853 3.389709 1.484062 5.274785 2.298014 4.566645 7.108404 1.511667 3.679949 3.570555 -0.128767 15.764548 20.481993 3.923714 -24.148632 31.547367 7.666834 -6.671801 15.526757 8.248492 0.000000 0.000000 0.000000 -1.296559 -6.305635 -0.093227 11.040453 -18.350261 1.788659 22.411470 -7.876253 8.743064 0.000000 0.000000 0.000000 -7.125000 0.000000 0.000000 -3.227872 20.541708 -1.892918 0.000000 0.000000 0.000000 -21.141692 9.961276 9.938225 -28.046519 -39.157281 -10.153724 -16.770269 -12.447868 1.067176 0.000000 0.000000 0.000000 7.125000 0.000000 0.000000 7.795920 31.038652 2.681199
-0.006981 17.866422 -29.103882 -0.940484 37.413868 0.851133 0.000000 0.000000 0.000000 -13.134393 -14.385545 -9.734983 2.151419 9.174653 26.343101 0.300728 -8.245996 -10.590659 0.274481 -3.369986 -9.310652 0.000000 0.000000 0.000000 20.504458 -14.557573 -6.019579 -2.011573 -8.890162 25.452262 2.355663 -33.012725 -35.023412 -0.034991 -1.207682 3.320398 1.280221 5.163996 2.330080 4.583465 6.958142 1.533535 3.811194 3.494936 -0.142852 15.124455 20.777006 4.151205 -23.140869 31.658339 7.424347 -6.332673 15.614629 7.847836 0.000000 0.000000 0.000000 -1.639675 -6.047898 -0.123494 11.080890 -18.412054 1.801399 22.479921 -7.923738 9.102481 0.000000 0.000000 0.000000 -7.125000 0.000000 0.000000 -3.187416 20.150355 -1.897183 0.000000 0.000000 0.000000 -20.855532 9.700511 10.290058 -27.022083 -38.199863 -9.512936 -17.811723 -11.647151 0.755455 0.000000 0.000000 0.000000 7.125000 0.000000 0.000000 6.945991 30.731517 2.436871
-0.012371 17.864101 -29.080206 -1.058326 37.543133 0.686903 0.000000 0.000000 0.000000 -13.006340 -14.477996 -9.611123 2.167359 9.206264 26.442764 0.304726 -8.236219 -10.640031 0.282662 -3.419444 -9.448781 0.000000 0.000000 0.000000 20.688265 -14.516571 -5.802490 -2.001657 -8.869578 25.388162 2.409180 -33.230244 -35.159918 -0.034700 -1.202108 3.305188 1.161768 5.174029 2.336958 4.566771 6.969091 1.548752 3.858626 3.500041 -0.143656 14.645149 20.964165 4.343165 -22.065572 31.628167 7.257774 -6.026478 15.633044 7.470240 0.000000 0.000000 0.000000 -1.892392 -5.846519 -0.231593 11.045529 -18.358017 1.790249 22.341957 -7.672336 9.650694 0.000000 0.000000 0.000000 -7.125000 0.000000 0.000000 -3.300630 19.571358 -2.007630 0.000000 0.000000 0.000000 -20.384678 9.476338 10.392991 -25.860165 -37.069482 -8.803545 -19.157532 -10.869133 0.683044 0.000000 0.000000 0.000000 7.125000 0.000000 0.000000 5.876970 30.673376 2.066287
-0.016366 17.861295 -29.057304 -1.135006 37.674299 0.569242 0.000000 0.000000 0.000000 -12.912536 -14.560184 -9.523801 2.185360 9.241951 26.555185 0.308039 -8.259112 -10.690069 0.289845 -3.462124 -9.568040 0.000000 0.000000 0.000000 20.825209 -14.522798 -5.624576 -1.993599 -8.852728 25.335697 2.439696 -33.377144 -35.287124 -0.035039 -1.208649 3.323060 1.019652 5.198387 2.316751 4.525496 6.997753 1.550089 3.895024 3.513802 -0.144502 14.122310 21.148979 4.527509 -20.930711 31.587874 7.075679 -5.712099 15.646624 7.076604 0.000000 0.000000 0.000000 -2.150623 -5.670553 -0.443155 11.007869 -18.300310 1.778372 22.322282 -7.547622 10.043253 0.000000 0.000000 0.000000 -7.125000 0.000000 0.000000 -3.325968 19.151389 -2.054203 0.000000 0.000000 0.000000 -19.825110 9.320074 10.393982 -24.644976 -35.837946 -8.081518 -20.382551 -9.872699 0.733511 0.000000 0.000000 0.000000 7.125000 0.000000 0.000000 4.910510 30.741623 1.716067
-0.017400 17.857660 -29.036390 -1.135516 37.799955 0.513515 0.000000 0.000000 0.000000 -12.887986 -14.545128 -9.500981 2.205482 9.281628 26.680319 0.307956 -8.399387 -10.734814 0.295740 -3.496830 -9.665215 0.000000 0.000000 0.000000 20.863138 -14.619125 -5.508211 -1.990504 -8.846296 25.315763 2.450901 -33.436704 -35.346138 -0.035288 -1.212899 3.334683 0.854777 5.202568 2.294296 4.453336 6.999072 1.534502 3.912330 3.513600 -0.158694 13.465438 21.367457 4.622420 -19.603701 31.568485 6.949674 -5.329105 15.662464 6.670526 0.000000 0.000000 0.000000 -2.428949 -5.516434 -0.614542 10.963603 -18.232496 1.764502 22.473358 -7.439284 10.262540 0.000000 0.000000 0.000000 -7.125000 0.000000 0.000000 -3.225470 18.903634 -2.009747 0.000000 0.000000 0.000000 -19.187389 9.193101 10.289686 -23.382534 -34.503892 -7.354072 -21.109878 -8.909485 0.667255 0.000000 0.000000 0.000000 7.125000 0.000000 0.000000 4.330673 30.679067 1.518779
-0.016828 17.852912 -29.016237 -1.130983 37.861793 0.448304 0.000000 0.000000 0.000000 -12.885417 -14.568248 -9.432951 2.227444 9.324570 26.815979 0.313450 -8.433460 -10.817106 0.298299 -3.511974 -9.707570 0.000000 0.000000 0.000000 20.871662 -14.730666 -5.388882 -1.987938 -8.840967 25.299030 2.468053 -33.478437 -35.333256 -0.034319 -1.195688 3.287297 1.104307 5.734245 2.444134 3.781587 7.714874 1.251077 3.031458 3.869666 -0.452113 14.371745 20.994702 4.780407 -18.261692 30.799900 6.939083 -5.213983 15.331894 6.415139 0.000000 0.000000 0.000000 -1.613404 -5.264667 -2.372417 10.777458 -17.946300 1.706735 22.628983 -7.238127 10.416139 0.000000 0.000000 0.000000 -7.125000 0.000000 0.000000 -3.120364 18.725727 -1.956356 0.000000 0.000000 0.000000 -17.487897 9.374541 8.912376 -21.811633 -32.761895 -6.484319 -21.410163 -8.635688 0.732239 0.000000 0.000000 0.000000 7.125000 0.000000 0.000000 4.095943 30.751895 1.428943
-0.016006 17.848554 -28.995870 -1.106914 37.863351 0.395912 0.000000 0.000000 0.000000 -12.904494 -14.607507 -9.324959 2.246572 9.361762 26.933611 0.322670 -8.376848 -10.918514 0.299197 -3.517275 -9.722427 0.000000 0.000000 0.000000 20.855081 -14.828391 -5.257964 -1.983076 -8.830855 25.267485 2.488656 -33.509138 -35.276469 -0.032425 -1.162825 3.196967 1.284295 6.184401 2.575039 3.191771 8.317744 1.047290 2.286228 4.167452 -0.649359 15.226561 20.635045 4.887017 -17.586209 30.146174 6.698268 -5.248700 15.047081 6.227032 0.000000 0.000000 0.000000 -0.954805 -5.136655 -3.795089 10.586759 -17.652074 1.648465 22.756400 -6.905978 10.528571 0.000000 0.000000 0.000000 -7.125000 0.000000 0.000000 -3.034258 18.593861 -1.911041 0.000000 0.000000 0.000000 -15.869295 9.536551 7.669540 -20.436278 -31.164297 -5.755494 -21.565716 -8.600720 1.008751 0.000000 0.000000 0.000000 7.125000 0.000000 0.000000 3.986278 31.050215 1.361891
